<svg xmlns="http://www.w3.org/2000/svg" viewBox="0 0 512 512" role="img" aria-labelledby="title">
  <title id="title">Ícone do Painel da Mirna</title>
  <defs>
    <linearGradient id="bg" x1="0" x2="1" y1="0" y2="1">
      <stop offset="0" stop-color="#f6e4ea"/>
      <stop offset="1" stop-color="#dbe9dc"/>
    </linearGradient>
  </defs>
  <rect width="512" height="512" rx="132" fill="url(#bg)"/>
  <path d="M258 395c-4-72-2-139 13-201" fill="none" stroke="#607e67" stroke-width="24" stroke-linecap="round"/>
  <path d="M268 305c-55-4-84-29-91-77 52-4 85 22 91 77Z" fill="#7ca184"/>
  <path d="M261 247c47-8 74-35 75-78-45 2-72 29-75 78Z" fill="#8daf94"/>
  <path d="M263 207c-50-10-86-52-86-105 54 1 89 37 86 105Z" fill="#b26f87"/>
  <path d="M264 207c50-10 86-52 86-105-54 1-89 37-86 105Z" fill="#c9859b"/>
  <path d="M263 204c-25-24-31-59-8-96 28 28 30 62 8 96Z" fill="#e0a8b9"/>
</svg>
